<svg id="Camada_1" data-name="Camada 1" xmlns="http://www.w3.org/2000/svg" viewBox="0 0 1920 1920"><defs><style>.cls-1{fill:#232323;}.cls-2{fill:#e9ddd1;}.cls-3{fill:#cca772;}</style></defs><title>LOGO 01</title><rect class="cls-1" x="2.94" y="11.17" width="1922" height="1908.83"/><path class="cls-2" d="M916.32,927.62q-4.58-8.48-15.67-15.15T869.46,900.4Q856.74,897,850,893.57t-6.82-9.37a10.81,10.81,0,0,1,3.94-8.42c2.65-2.33,6.76-3.53,12.37-3.56l48.59,13,7.81-25-23.24-16.84a110.49,110.49,0,0,0-12-1.24c-5-.31-9.66-.45-14-.42q-21.71.15-35.58,6.17t-20.36,16.32a41.5,41.5,0,0,0-6.39,23q.08,12.29,5.15,20.12a38.79,38.79,0,0,0,14.62,13,130.28,130.28,0,0,0,23.09,9.36q17.45,5.21,25.56,8.73c5.41,2.36,8.12,5.3,8.15,8.85q0,4.92-3.54,6.88c-2.38,1.31-6,2-10.95,2a108.17,108.17,0,0,1-33.19-4.59,136.55,136.55,0,0,1-24.84-10.17l.26,36.64a50.12,50.12,0,0,0,10.88,5.66,100.74,100.74,0,0,0,17.43,5.1,102.76,102.76,0,0,0,21.32,2q31.51-.22,47.19-12.3T921,946.72A40.11,40.11,0,0,0,916.32,927.62Z"/><path class="cls-2" d="M998.25,875.57l42,1.77-.23-34.81-119.75.81.23,34.81,40.93-2.33L962.17,988l36.85-.26,2.17-12.3L998.79,955Z"/><path class="cls-2" d="M1177.64,974.25l-11.73-10.36-20.45-25.25-2-2.23a39.83,39.83,0,0,0,17.48-16.19q6.28-10.8,6.17-28.2-.13-19.23-7.27-30.14a38.73,38.73,0,0,0-19.15-15.43,74.39,74.39,0,0,0-27-4.42l-65.49.45-4,12.3,4.22,20.65.78,112,36.83-.25,2-12.5-2.19-20.46-.07-10.65,17-.12,29,43.41,46.06-.31Zm-55.11-67.09q-6.32,4.05-17,4.11l-20.07.15L1083.2,875l21.29-.15a58.54,58.54,0,0,1,12.6,1.14,14.71,14.71,0,0,1,8.53,5q3.11,3.76,3.14,11.34C1128.82,899.51,1126.74,904.48,1122.53,907.16Z"/><path class="cls-2" d="M1281.69,953.06l-61.2.42-.19-27.23,30.92,1.84,24.16-.16-.22-31.72-55.06.36-.15-22.51,42.78-.29,18.43,1.92,13.32-28.75-10.27-6.08-101.33.69.76,112.18-4,20.5,4.17,12.26,110.34-.76,12-13.19Z"/><path class="cls-2" d="M1410.25,952.19l-61.21.42-.19-27.23,30.93,1.83,24.14-.16-.2-31.73-55.06.38-.16-22.52,42.78-.29,18.43,1.93L1423,846.07,1412.75,840l-101.32.69.76,112.18-4,20.5,4.18,12.25,110.33-.75,12-13.19Z"/><path class="cls-2" d="M1505.7,872.11l42,1.76-.23-34.8-119.76.82.25,34.79,40.91-2.33.78,112.19,36.85-.25,2.15-12.3-2.39-20.46Z"/><path class="cls-2" d="M1101.62,1046.07a20.19,20.19,0,0,0-9.87-6.67,13.76,13.76,0,0,0,4.62-6.13,21.75,21.75,0,0,0,1.32-7.72q0-6.66-3.25-10.62a17.66,17.66,0,0,0-8.88-5.72,44.69,44.69,0,0,0-13.46-1.7l-26.6.18-2,6.15,2.12,10.21.38,56.06,33.77-.24q12.78-.07,19.08-5.29c4.2-3.46,6.29-9,6.23-16.56Q1105,1050.55,1101.62,1046.07Zm-41.71-25.18,14.13-.1c3.4,0,5.69.71,6.85,2.2a9.67,9.67,0,0,1,1.79,6q0,7.59-8.54,7.64l-14.11.09Zm26.64,43.18c-1.66,1.65-4.29,2.49-7.91,2.52l-18.42.13-.11-17.81,17.38-.11c4,0,6.94.66,8.76,2.09a7.58,7.58,0,0,1,2.76,6.32A9.13,9.13,0,0,1,1086.55,1064.07Z"/><path class="cls-2" d="M1174.39,1067.27l-8-14.48-16.77-45.7-20.16.13-13,40.08-6.52,3.12.07,9.92-5.8,19.38,14.93-.11,5.29-18.44,29.77-.21,6.26,18.36,14-.09Zm-44.33-18.83,8.3-27.78h2.15l9,27.66Z"/><path class="cls-2" d="M1233.55,1072.69l-5.87-5.17-9.17-10.58-3-2.65a20.68,20.68,0,0,0,9.4-8.14q3.4-5.45,3.33-14.54c0-6.42-1.25-11.43-3.63-15.07a19.38,19.38,0,0,0-9.57-7.71,37,37,0,0,0-13.46-2.2l-24.55.16-2,6.15,2.12,10.31.38,56,14.32-.1,1-6.24-1.1-10.22,0-5.32,8.48-.06,14.47,21.69,18.93-.13Zm-22.73-32q-2.43,3.54-9.17,3.59l-10,.06-1.19-24.33,10.64-.07c4.57,0,7.72,1,9.48,3s2.64,5,2.67,8.78A15.32,15.32,0,0,1,1210.82,1040.68Z"/><path class="cls-2" d="M1292.28,1044.78a20.26,20.26,0,0,0-9.88-6.69A13.51,13.51,0,0,0,1287,1032a21.55,21.55,0,0,0,1.32-7.73c0-4.43-1.11-8-3.25-10.62a17.84,17.84,0,0,0-8.89-5.72,44.62,44.62,0,0,0-13.46-1.69l-26.58.18-2,6.14,2.12,10.23.38,56,33.76-.23q12.79-.09,19.09-5.3t6.23-16.56Q1295.67,1049.25,1292.28,1044.78Zm-41.71-25.19,14.12-.09q5.11,0,6.86,2.2a9.48,9.48,0,0,1,1.78,6q.06,7.58-8.53,7.63l-14.11.09Zm26.64,43.19c-1.67,1.65-4.3,2.48-7.91,2.51l-18.42.12-.12-17.79,17.39-.12c4,0,6.95.67,8.76,2.08a7.66,7.66,0,0,1,2.76,6.32A9.21,9.21,0,0,1,1277.21,1062.78Z"/><path class="cls-2" d="M1348.78,1064.74,1316,1065l-.12-18.19,17.59.9,10-.08-.09-12.78-27.61.19-.12-15.86,21.48-.14,10.24,1,5.66-11.3-5.14-3-46.44.33.39,56-2,10.25,2.08,6.13,48.9-.34,6-6.59Z"/><path class="cls-2" d="M1415,1071.46l-5.86-5.19-9.18-10.58-3-2.63a20.9,20.9,0,0,0,9.4-8.14c2.26-3.64,3.37-8.48,3.32-14.56,0-6.4-1.24-11.43-3.62-15a19.31,19.31,0,0,0-9.57-7.71,37,37,0,0,0-13.46-2.21l-24.56.17-2,6.15,2.12,10.31.38,56,14.32-.11,1-6.24-1.1-10.23,0-5.31,8.49-.06,14.46,21.68,18.93-.11Zm-22.72-32q-2.44,3.54-9.18,3.6l-10,.06-1.19-24.34,10.64-.07c4.57,0,7.73,1,9.48,3s2.65,5,2.67,8.77A15.29,15.29,0,0,1,1392.28,1039.44Z"/><path class="cls-3" d="M908.4,1023.19v66.18c0,87.41-71.52,160.33-158.93,160.37-87.71,0-159.07-71.3-159.07-159V744c0-87.41,71.51-160.33,158.93-160.37,87.7,0,159.07,71.3,159.07,159V780a5.87,5.87,0,0,1-4.25,5.64L798.71,815.8a5.86,5.86,0,0,1-7.47-5.63V743.32c0-22.91-18.13-42.1-41-42.53a41.88,41.88,0,0,0-42.65,41.83V1090c0,22.91,18.12,42.1,41,42.54a41.9,41.9,0,0,0,42.65-41.84v-37.42a5.86,5.86,0,0,1,4.25-5.63l105.44-30.13A5.86,5.86,0,0,1,908.4,1023.19Z"/><path class="cls-3" d="M387.44,597.78l30.13,105.44a5.85,5.85,0,0,0,5.63,4.25h20.69V1090c0,22.91-18.13,42.1-41,42.54a41.9,41.9,0,0,1-42.65-41.84v-59.18a5.85,5.85,0,0,0-7.46-5.63l-105.45,30.13a5.85,5.85,0,0,0-4.24,5.63v27.68c0,87.41,71.51,160.33,158.92,160.37,87.71,0,159.07-71.3,159.07-159V596.17a5.86,5.86,0,0,0-5.85-5.86H393.07A5.86,5.86,0,0,0,387.44,597.78Z"/><path class="cls-3" d="M1671,1057.81c-8.67-5.3-12.08-10.69-10-20.29.6-2.74.1-5.73-.06-8.6-1.86-32.77-34.55-59.52-67-54.86-43.42,6.24-67,46.19-50.92,87.39,3.42,8.71,1.6,12.19-6.3,16-21,10-41.73,20.72-62.47,31.31-12,6.17-23.94,12.68-36.75,19.48-4,1.68-6.69,3-14.39,6.83-5.92,2.55-11.08,4.3-15.77,6.89-13.48,7.44-27.69,9.94-43.12,9.95-61.33.07-122.64,1-184,1.65-4.13,0-8.6-.37-12.33,1-23.56,8.67-47,17.79-70.41,26.77.08.73.18,1.47.27,2.23l12.32-.14c86.86-.92,173.72-1.62,260.59-3.06,12.15-.22,24.31-3.74,36.32-6.44,7.67-1.72,15.12-7,22.55-6.76,12.79.35,23.19-3.94,32.8-11q45.45-33.54,90.43-67.72c5.15-3.93,8.58-4.25,14.28-1.15,28.45,15.46,62.37,8.41,82-16.49,7.11-9,12.53-9.69,19.14-.15,3.41,4.92,5,12.36,4.49,18.39-.56,6.36.92,9.42,6.28,11.52C1689,1087.14,1686.05,1067,1671,1057.81ZM1440.19,1158.1a10.76,10.76,0,1,1,10.75-10.76A10.76,10.76,0,0,1,1440.19,1158.1Zm192.49-86.36c-14.36,13.59-48.71,17.36-59.17,3.23.75-5.3,12-7.16,5.13-14.79-6.29-7-10.44,1.89-15.71,2.68a28.11,28.11,0,0,0-5.19,1.79c-14.87-17.11-9.8-49.82,10.12-67.25a49.24,49.24,0,0,1,68.87,4.08C1655.51,1022.21,1653.46,1052.05,1632.68,1071.74Z"/><path class="cls-2" d="M1394.68,1131.28c4.09-.08,8.13-2.36,14.67-4.38-6-4.12-9.82-6.05-12.78-8.85-9.3-8.8-20.23-10.34-32.58-9.89-26.17.94-52.44,2-78.53.62-3.84-.21-40.12.26-43.7.68h0l-33.25,24.39C1259.7,1133.19,1343.49,1132.18,1394.68,1131.28Z"/><path class="cls-3" d="M1647.29,1133.19c-25-28.14-70.13-27.34-98.73,2.27-5,5.19-9.28,6.39-15.88,4.5-4-1.15-9.47-1.81-12.85,0-10.29,5.53-19.89,12.37-29.76,18.69.23.75.45,1.49.66,2.24,13.11,2.51,26.2,5.16,39.36,7.45,5.71,1,8.08,3.42,9.62,9.53,2.61,10.33,6,21.13,11.71,30,19.29,29.6,61.23,36,88.29,14.49C1667.83,1199.94,1671.22,1160.07,1647.29,1133.19Zm-45.39,90.28c-.41,0-.8,0-1.18,0a50.24,50.24,0,0,1-35.82-16.36,52.21,52.21,0,0,1-9.45-14.24,48.79,48.79,0,0,1-4.26-19.13c-.33-26,22.21-49.11,48.5-49.64a49.31,49.31,0,0,1,19.52,3.6,51.86,51.86,0,0,1,26.51,23.92c.27.53.54,1.08.79,1.62.1.19.19.37.27.56a47.56,47.56,0,0,1,4.42,19.08,49.11,49.11,0,0,1-.33,6.79A50,50,0,0,1,1601.9,1223.47Z"/><path class="cls-3" d="M1234.34,1109.2c-25.54.93-115.53,2.61-141,1.21-1.17-.06-2.33-.09-3.49-.09h0c-7.29,1-23,9.4-34.85,16.17l-14.35,8.56-.13.07-.21.13,0,0c32.51-.43,129.39-1.5,161.91-2Z"/></svg>